PathFileType	4	(X/Y/Z)	Run_500 02
DataRate	CameraRate	NumFrames	NumMarkers	Units	OrigDataRate	OrigDataStartFrame	OrigNumFrames
120	120	6	42	mm	120	1	128
Frame#	Time	LASI			RASI			LPSI			RPSI			RTH1			RTH2			RTH3			LTH1			LTH2			LTH3			RTB1			RTB2			RTB3			LTB1			LTB2			LTB3			RCAL			RTOE			RMT5			LCAL			LTOE			LMT5			LACR			RACR			CLAV			C7			RUA1			RUA2			RUA3			RLEL			RMEL			LUA1			LUA2			LUA3			LLEL			LMEL			RFAsuperior			RFAradius			RFAulna			LFAsuperior			LFAradius			LFAulna		
		X1	Y1	Z1	X2	Y2	Z2	X3	Y3	Z3	X4	Y4	Z4	X5	Y5	Z5	X6	Y6	Z6	X7	Y7	Z7	X8	Y8	Z8	X9	Y9	Z9	X10	Y10	Z10	X11	Y11	Z11	X12	Y12	Z12	X13	Y13	Z13	X14	Y14	Z14	X15	Y15	Z15	X16	Y16	Z16	X17	Y17	Z17	X18	Y18	Z18	X19	Y19	Z19	X20	Y20	Z20	X21	Y21	Z21	X22	Y22	Z22	X23	Y23	Z23	X24	Y24	Z24	X25	Y25	Z25	X26	Y26	Z26	X27	Y27	Z27	X28	Y28	Z28	X29	Y29	Z29	X30	Y30	Z30	X31	Y31	Z31	X32	Y32	Z32	X33	Y33	Z33	X34	Y34	Z34	X35	Y35	Z35	X36	Y36	Z36	X37	Y37	Z37	X38	Y38	Z38	X39	Y39	Z39	X40	Y40	Z40	X41	Y41	Z41	X42	Y42	Z42	

1	  0.008333	762.002325	981.954012	-531.094821	771.430470	1013.787479	-287.472693	605.894747	1036.414615	-432.865212	609.066363	1040.815342	-344.504924	810.114370	868.355472	-231.797394	930.928184	820.554084	-254.009422	947.091908	686.814496	-247.237287	660.851841	854.864345	-565.681934	658.279032	734.560062	-558.082738	528.267492	645.430748	-539.425245	954.129812	520.131393	-314.928037	875.093127	508.071070	-263.856080	798.687176	423.080187	-330.103862	451.600305	408.355213	-484.791984	346.944256	357.548155	-533.744215	317.784354	270.642430	-466.770807	619.825809	418.097695	-344.538691	761.688763	250.077612	-328.569331	722.387286	269.521069	-241.070304	158.286547	256.172757	-462.567032	293.673988	 88.185907	-443.349343	238.502399	 77.945382	-518.153837	810.657815	1452.653707	-578.331325	729.921498	1481.442372	-229.164703	853.652296	1419.565799	-350.461067	737.374709	1503.705042	-415.962391	659.602139	1424.357570	-156.091149	645.153935	1356.971121	-137.501108	545.114931	1389.645805	-138.783248	519.732859	1318.336865	-75.064161	486.654601	1297.762864	-153.389711	804.539922	1377.273171	-637.673958	751.399514	1300.088987	-644.690240	817.002646	1291.640406	-682.157231	830.243153	1191.749732	-731.366461	792.475629	1129.678814	-675.520915	569.930141	1251.882047	-56.470952	667.785242	1111.362059	-73.799805	604.166914	1089.887450	-60.477313	887.116006	1225.483974	-697.170098	964.997463	1287.517719	-552.392344	1002.067627	1234.585544	-569.656611	
2	  0.016667	765.269654	984.556918	-529.804478	771.810866	1018.148373	-288.481800	608.146216	1041.213109	-433.710598	610.243141	1045.242235	-345.612285	811.278658	874.994969	-232.173104	930.015427	825.944065	-252.036347	947.184831	691.922385	-249.896437	660.527527	861.172981	-566.297566	654.783854	740.104523	-559.846004	524.285645	653.791210	-541.182169	970.864869	521.090139	-315.723323	893.976917	499.499048	-265.250851	829.933755	405.673667	-332.947899	439.224845	417.631923	-486.778079	332.707234	370.693900	-535.339140	299.550514	285.377511	-468.184588	653.236891	376.141757	-350.577621	816.334735	230.748587	-330.227495	772.580186	244.274597	-243.800447	147.004070	284.801130	-463.166675	258.113160	101.271503	-442.790451	199.116205	 93.493905	-514.822887	814.952610	1457.121300	-575.157823	728.526537	1485.016957	-228.818911	854.039611	1422.711905	-347.054650	738.646483	1506.533582	-414.605938	657.260511	1430.427978	-156.094893	641.638028	1362.978619	-137.507664	542.537155	1398.252389	-139.680017	514.641600	1327.874064	-76.528143	481.971537	1307.760697	-155.339281	809.762244	1383.092261	-635.675027	755.417842	1307.467645	-646.342996	822.742408	1297.458992	-680.233884	835.145892	1197.455111	-730.341170	792.788323	1135.760413	-676.939405	563.812321	1261.426609	-56.713918	660.787057	1119.874794	-70.882322	596.885184	1099.117675	-57.805403	891.063564	1230.058009	-693.758906	963.509938	1289.335824	-545.113375	999.526095	1235.994640	-560.898272	
3	  0.025000	768.234796	987.517962	-527.730357	772.049141	1021.859533	-289.065415	610.098489	1045.685113	-434.806203	611.289416	1049.538239	-346.674013	811.099497	879.797941	-232.273378	928.672009	830.105445	-250.613691	946.708277	695.194416	-252.136996	661.291982	866.494289	-566.771596	653.349557	744.587154	-561.003186	522.186298	660.244009	-543.097107	985.912826	520.588388	-316.258230	911.752014	489.789317	-266.296200	860.206440	388.286015	-335.670821	427.896559	426.160852	-487.934046	319.554571	383.750394	-536.424828	281.463631	301.198028	-468.628855	687.540367	334.846586	-356.086659	869.676530	213.711185	-332.480921	822.634857	221.050736	-246.743410	134.989336	313.783959	-464.391270	223.248850	117.673864	-439.897532	161.947989	112.228228	-510.176020	819.300941	1461.115747	-572.173150	727.337375	1487.993191	-228.492640	854.690658	1425.401484	-343.796828	740.095057	1509.114256	-413.356647	655.240905	1435.846532	-156.011487	638.473396	1368.410419	-137.405577	540.249521	1406.124960	-140.421901	509.993061	1336.594779	-77.927723	477.716476	1317.027962	-157.123392	814.733225	1388.407908	-633.769016	759.136667	1314.666352	-648.075923	827.995611	1302.814061	-678.651638	839.209401	1202.645491	-729.521429	792.383377	1141.545201	-678.557502	558.145297	1270.215604	-56.832617	654.526604	1127.832967	-68.002536	590.334494	1107.745602	-55.092367	894.331126	1233.986689	-690.688634	961.653964	1290.248412	-538.266842	996.690657	1236.467380	-553.171690	
4	  0.033333	770.684451	990.990868	-524.646848	771.984090	1024.628519	-289.041007	611.593440	1049.644966	-436.170756	612.155086	1053.566584	-347.662835	808.999755	881.720045	-231.953199	926.821820	832.159155	-250.176169	945.180595	695.438353	-253.750340	663.689161	870.142125	-566.976955	655.061820	747.321710	-560.966377	523.017870	663.681697	-545.162488	998.182057	517.620288	-316.342004	927.528559	478.150563	-266.961594	888.823851	370.908779	-338.115564	418.299876	433.670894	-487.823810	308.212814	396.776958	-536.754661	263.888873	318.890393	-467.686622	723.160327	295.017323	-360.671690	920.567077	200.115230	-335.691385	872.203670	200.908258	-250.052998	122.005837	343.390492	-466.790939	189.955940	139.574192	-433.453440	128.642478	135.713277	-503.564699	823.744622	1464.341632	-569.499398	726.541178	1490.042116	-228.163885	855.709471	1427.406824	-340.794807	741.833365	1511.310576	-412.228065	653.762529	1440.238391	-155.796526	635.917622	1372.917674	-137.139284	538.454286	1412.787372	-140.936535	506.105324	1343.952615	-79.243380	474.227138	1325.020173	-158.650488	819.318113	1392.898369	-632.023511	762.445471	1321.482577	-649.815563	832.403750	1307.401378	-677.544564	841.813018	1206.992243	-729.011343	790.747010	1146.897737	-680.423641	553.256783	1277.757547	-56.761252	649.522765	1134.852262	-65.142780	585.045111	1115.337267	-52.313942	896.454965	1236.813433	-688.213863	959.237749	1289.627090	-532.173224	993.443758	1235.326252	-547.111773	
5	  0.041667	772.547650	994.820522	-521.100613	771.442714	1026.570764	-288.497771	612.657734	1053.053741	-437.566284	612.849101	1057.138089	-348.570487	805.366611	880.820912	-231.249241	924.722945	831.650772	-250.876416	942.177719	692.313947	-254.834311	667.542410	871.907362	-566.850681	659.712862	748.171267	-559.358987	526.798094	664.040856	-547.202167	1007.367943	511.883056	-315.962733	940.817164	464.404384	-267.571719	915.486656	353.607608	-340.116671	410.687908	440.431940	-486.535782	299.009935	409.963137	-536.407911	247.520720	338.715491	-465.680363	759.791467	257.727038	-364.206970	968.083406	189.650211	-339.847027	920.505623	183.703936	-253.794589	108.765920	373.752308	-470.670970	159.188681	167.456653	-423.869948	 99.856279	163.634663	-495.250632	828.289837	1466.724016	-567.153818	726.275205	1491.158164	-227.756785	857.008757	1428.739568	-338.094987	743.897747	1513.109671	-411.132051	652.911344	1443.557204	-155.451670	634.102798	1376.413080	-136.709741	537.253474	1418.072696	-141.253728	503.139206	1349.738895	-80.485575	471.723695	1331.408002	-159.915980	823.510523	1396.470970	-630.448502	765.393343	1327.693281	-651.299411	835.767694	1311.106679	-676.792323	842.638198	1210.415131	-728.777913	787.637783	1151.860671	-682.395888	549.348583	1283.880096	-56.499549	646.025815	1140.754972	-62.215222	581.292210	1121.670246	-49.472087	897.226223	1238.334464	-686.425734	956.290384	1287.179468	-527.014026	989.814572	1232.226475	-542.810077	
6	  0.050000	773.903897	998.597644	-518.088782	770.288290	1027.958083	-287.644756	613.449583	1055.908738	-438.703004	613.349809	1059.965618	-349.398835	801.135799	877.962980	-230.301702	922.603080	828.402762	-252.447104	937.304033	686.113567	-255.715236	672.210937	872.034897	-566.445103	666.212999	747.467292	-556.315521	532.894306	661.977419	-548.992218	1013.701730	503.793530	-315.391825	951.631159	449.112440	-268.541559	940.091689	336.747021	-341.623295	405.066423	446.891582	-484.527749	292.077238	423.471216	-535.641413	233.272574	360.359567	-463.405940	796.449312	224.200725	-366.884194	1011.502711	181.295299	-344.551115	966.242261	168.755911	-257.908040	 96.981104	404.871221	-475.886413	131.689454	200.338028	-412.861507	 75.221728	194.868999	-486.188068	832.880125	1468.323524	-565.054195	726.590654	1491.499380	-227.170523	858.405178	1429.472892	-335.692147	746.274446	1514.540026	-409.951426	652.677621	1445.914279	-154.989400	633.060078	1378.931584	-136.136464	536.690499	1421.982063	-141.459756	501.145693	1353.960089	-81.639188	470.316713	1335.990273	-160.949356	827.331817	1399.175745	-628.982796	767.963581	1333.104466	-652.187266	837.985991	1313.929683	-676.150321	841.622205	1213.004130	-728.697912	783.014446	1156.532975	-684.223104	546.574113	1288.597789	-56.078548	644.108942	1145.487411	-59.092718	579.162469	1126.667750	-46.582096	896.584629	1238.538081	-685.229850	952.986521	1282.826117	-522.865005	985.803208	1227.055916	-539.945229	
